<svg version="1.1" xmlns="http://www.w3.org/2000/svg" viewBox="0 0 1200 1200" width="1200" height="1200">
  <path fill="#11e212" d="m 624.82993,1167.5355 c 7.86382,-2.0482 19.48688,-7.0539 25.82906,-11.1237 6.34217,-4.0697 15.1433,-11.8554 19.55807,-17.3013 4.41476,-5.4461 10.29418,-14.404 13.06537,-19.9068 2.77118,-5.5025 6.26637,-17.4396 7.76707,-26.5267 2.28926,-13.862 2.09069,-19.0115 -1.23342,-31.9868 -2.17906,-8.5058 -6.5974,-19.9621 -9.81851,-25.4585 -3.2211,-5.4964 -11.56121,-15.1499 -18.53358,-21.452 -6.97236,-6.3023 -18.60577,-14.19124 -25.852,-17.53102 -11.04033,-5.08851 -16.88018,-6.09869 -36.04372,-6.23491 -20.00743,-0.14225 -24.5983,0.64725 -36.69185,6.30965 -7.60273,3.55969 -19.63227,11.96628 -26.73234,18.68118 -7.10005,6.7149 -16.50973,18.9382 -20.91037,27.1629 -7.42126,13.8699 -8.00906,16.6106 -8.10997,37.8146 -0.10017,21.0889 0.50225,24.1034 7.77419,38.8907 4.98368,10.1343 12.2482,19.9546 19.75189,26.7011 6.52789,5.8691 16.93715,13.0535 23.13167,15.9654 6.19452,2.9117 15.68849,6.1715 21.09768,7.2439 5.40921,1.0725 14.74398,2.0684 20.74392,2.2132 5.99996,0.1449 17.34303,-1.4126 25.20684,-3.4609 z M 255.69177,1034.1613 c 8.47018,-1.3742 20.3028,-4.7321 26.29474,-7.4617 5.9919,-2.7296 16.9979,-11.0665 24.45773,-18.5263 9.50891,-9.50895 15.23638,-17.86774 19.16023,-27.96307 3.27283,-8.42028 6.03997,-21.65967 6.66384,-31.88306 0.63922,-10.47452 -0.0978,-20.58904 -1.83839,-25.2306 -1.59792,-4.26102 -5.57261,-13.30872 -8.83262,-20.10596 -3.26001,-6.79724 -11.78403,-17.94833 -18.94226,-24.78016 -8.15391,-7.78213 -18.64084,-14.75116 -28.07761,-18.65885 -11.97125,-4.95719 -19.00799,-6.2301 -34.28596,-6.20228 -13.97269,0.0254 -22.96401,1.47676 -32.91847,5.31331 -7.53234,2.90305 -19.69566,10.21819 -27.02962,16.25591 -10.2826,8.4652 -15.57762,15.44797 -23.13566,30.51 -9.69495,19.3205 -9.79272,19.77999 -9.01414,42.36006 0.6647,19.27729 1.85462,25.00168 7.65074,36.80561 3.77498,7.68788 11.78134,18.69029 17.79195,24.44989 6.0106,5.7595 16.09985,13.2865 22.42054,16.7266 6.3207,3.4402 17.77794,7.174 25.46052,8.2973 7.68257,1.1234 15.04961,2.1662 16.37122,2.3172 1.32161,0.1512 9.33307,-0.8495 17.80322,-2.2239 z m 723.85869,-1.1455 c 9.62344,-2.0244 21.91874,-6.2718 27.32264,-9.4387 5.4039,-3.1669 14.2149,-10.018 19.58,-15.2246 5.365,-5.2066 12.6442,-15.57444 16.1756,-23.03951 3.5316,-7.46508 7.5135,-19.4829 8.8489,-26.70628 1.6996,-9.19396 1.619,-17.59377 -0.2686,-28.00356 -1.4831,-8.17858 -5.0008,-19.82241 -7.8169,-25.87514 -2.8163,-6.05276 -11.3397,-17.26295 -18.9411,-24.91157 -7.6013,-7.6486 -18.5771,-16.01065 -24.3908,-18.58229 -5.81362,-2.57164 -18.4617,-5.79492 -28.10684,-7.16285 -14.16791,-2.00939 -20.33465,-1.77027 -32.1035,1.24476 -8.01175,2.05252 -17.73818,5.3139 -21.61421,7.24753 -3.87603,1.9336 -11.54478,6.96823 -17.04161,11.18807 -5.49684,4.21979 -13.38939,12.60227 -17.53903,18.6277 -4.14965,6.02542 -9.86626,16.21035 -12.70372,22.63318 -4.31825,9.77474 -5.00323,15.06132 -4.203,32.43934 0.76849,16.68951 2.29864,23.5055 7.80171,34.75223 3.76501,7.69492 11.36412,18.50799 16.8868,24.02909 5.52268,5.5212 15.90175,13.2461 23.06479,17.1666 7.1629,3.9203 18.97072,8.4253 26.23956,10.0109 7.26871,1.5857 15.03751,2.9736 17.26394,3.0843 2.22643,0.1112 11.92179,-1.4548 21.54537,-3.4792 z M 635.58653,980.22795 c 0.009,-1.32161 1.51523,-12.13472 3.34471,-24.02915 1.96419,-12.77029 6.30238,-28.17537 10.59393,-37.61923 4.88108,-10.74125 12.26566,-21.08594 22.48801,-31.50224 8.37122,-8.53008 20.62698,-18.22596 27.23499,-21.54643 6.60801,-3.32045 24.39688,-8.92464 39.5308,-12.45375 15.13391,-3.52912 31.12537,-8.64713 35.53651,-11.37336 5.15262,-3.18451 10.67856,-10.23584 15.45495,-19.72125 4.0891,-8.12046 10.72104,-19.63034 14.73768,-25.57757 4.01664,-5.94721 14.79569,-18.77134 23.95343,-28.49808 11.79281,-12.5255 19.10906,-23.04097 25.07787,-36.04372 4.63509,-10.09731 11.74826,-25.38727 15.80703,-33.9777 4.52481,-9.57681 12.55745,-20.77994 20.7646,-28.96014 7.36166,-7.33768 19.33206,-16.71034 26.60091,-20.82818 7.26884,-4.11782 19.86001,-9.19772 27.98037,-11.28864 8.12036,-2.09095 23.46523,-3.80173 34.0997,-3.80173 10.63447,0 19.83162,-0.81099 20.43805,-1.80218 0.60643,-0.99121 1.46973,-17.90609 1.91823,-37.58863 l 0.8157,-35.78641 -22.50742,-0.77651 c -12.37903,-0.42707 -28.58707,-2.53106 -36.01797,-4.67554 -7.43089,-2.14448 -19.74871,-7.20867 -27.37314,-11.25377 -7.62429,-4.04509 -18.15161,-11.78869 -23.39385,-17.20798 -5.24237,-5.41931 -13.35925,-15.9816 -18.03751,-23.47183 -4.67818,-7.49018 -10.49801,-19.40891 -12.93291,-26.48605 -2.43489,-7.07713 -7.25608,-18.4503 -10.71376,-25.27366 -3.45767,-6.82339 -13.32391,-20.31549 -21.925,-29.98244 -8.60107,-9.66696 -15.64675,-18.43981 -15.65709,-19.49523 -0.009,-1.05544 -5.6014,-11.3279 -12.42469,-22.8277 -6.82328,-11.49979 -14.66279,-23.44095 -17.42113,-26.53591 -2.75834,-3.09495 -6.85653,-6.62001 -9.10708,-7.83343 -2.25054,-1.21345 -14.68563,-4.33274 -27.63351,-6.93176 -14.56098,-2.92286 -30.4166,-8.10861 -41.56348,-13.59383 -11.91843,-5.86487 -22.66062,-13.59428 -31.71894,-22.82294 -8.65999,-8.82283 -16.78422,-20.38373 -22.09177,-31.43687 -4.61708,-9.61522 -9.51039,-22.34813 -10.87405,-28.29533 -1.36365,-5.94721 -2.50581,-20.27459 -2.5381,-31.83862 l -0.0588,-21.02551 h -38.08455 -38.0846 l -1.4241,24.62988 c -0.826,14.28562 -3.52393,31.38473 -6.42381,40.7133 -2.74982,8.84589 -9.57076,22.88431 -15.15761,31.19647 -5.58685,8.31216 -15.56448,19.2447 -22.17249,24.29449 -6.60801,5.04981 -15.79916,11.13737 -20.42477,13.52791 -4.62562,2.39054 -14.90459,6.56488 -22.84218,9.27636 -7.9376,2.71144 -22.38969,6.03268 -32.11575,7.3805 -12.87984,1.78488 -19.30155,3.96239 -23.63898,8.01567 -3.27537,3.06078 -10.03085,12.59361 -15.01217,21.18402 -4.98133,8.59042 -12.01389,21.02551 -15.62796,27.63352 -3.61405,6.60801 -11.67342,17.96179 -17.90969,25.2306 -6.23628,7.26882 -13.71924,16.48109 -16.62879,20.47173 -2.90957,3.99065 -8.97109,17.15653 -13.47003,29.25756 -4.49899,12.101 -11.99363,27.7589 -16.65481,34.7953 -4.66114,7.03641 -9.88188,14.44001 -11.60163,16.45248 -1.71974,2.01246 -7.99272,7.55468 -13.93992,12.31606 -5.94723,4.76138 -14.43818,10.49875 -18.86882,12.7497 -4.43064,2.25095 -13.08113,5.71278 -19.22332,7.69296 -6.14219,1.98016 -22.41179,3.93731 -36.15466,4.34922 l -24.98707,0.74889 0.52218,35.60627 c 0.28719,19.58345 1.05239,36.46419 1.70043,37.51274 0.64806,1.04858 9.87921,1.9065 20.51367,1.9065 10.63445,0 25.97935,1.71405 34.09974,3.809 8.12036,2.09494 19.08957,6.11615 24.37598,8.93601 5.28642,2.81984 14.34719,8.86205 20.13506,13.4271 5.78785,4.56509 15.1806,14.62652 20.87276,22.35878 5.69219,7.73228 13.77707,22.95387 17.96644,33.82581 4.18935,10.87194 9.16794,22.77206 11.06349,26.44473 1.89556,3.67266 11.99302,15.98799 22.43881,27.3674 13.22098,14.40266 22.71682,27.77416 31.24897,44.00301 9.82173,18.68178 14.07207,24.33353 21.3948,28.44914 5.02598,2.82474 20.38572,7.85364 34.13278,11.1753 13.74705,3.32166 31.64053,9.3044 39.76323,13.29498 9.61407,4.72323 19.6781,12.50426 28.83499,22.29378 7.73652,8.271 17.61498,22.24772 21.95216,31.05938 5.64055,11.45962 8.26363,20.68224 9.21278,32.3917 0.7298,9.00377 1.68787,19.07376 2.12898,22.37776 0.44112,3.30401 0.89059,6.54795 0.99881,7.20875 0.10808,0.66079 16.95684,1.20145 37.44138,1.20145 23.21555,0 37.25155,-0.9051 37.26299,-2.40291 z M 593.8167,869.09315 c -1.88702,-3.63441 -10.05059,-14.09667 -18.14123,-23.24948 -8.09062,-9.15281 -20.02555,-20.22103 -26.52208,-24.59602 -6.49652,-4.37501 -18.09467,-10.76193 -25.77366,-14.19315 -7.679,-3.43124 -19.6387,-8.39006 -26.57712,-11.01963 -6.93842,-2.62955 -12.61531,-5.55041 -12.61531,-6.49077 0,-0.94035 14.70575,-15.73071 32.67943,-32.86742 17.97368,-17.13672 35.40918,-35.80747 38.74556,-41.49053 4.83166,-8.23008 5.82122,-12.50572 4.86265,-21.01017 -0.72341,-6.41822 -3.76775,-14.03923 -7.6319,-19.10539 -3.53559,-4.63544 -9.56273,-10.04889 -13.39357,-12.0299 -3.83088,-1.98101 -11.38723,-3.60185 -16.79193,-3.60185 -5.40469,0 -13.83855,2.08388 -18.74192,4.63083 -4.90337,2.54696 -22.36922,18.22599 -38.81301,34.84226 -16.44379,16.6163 -30.64718,30.21143 -31.56311,30.21143 -0.91591,0 -8.17576,-6.95968 -16.13297,-15.46597 -10.3519,-11.06622 -17.61795,-22.11631 -25.54149,-38.84307 -6.09062,-12.85739 -15.01476,-28.33492 -19.83145,-34.39449 -4.81666,-6.05958 -13.72157,-15.66699 -19.78865,-21.34981 -6.06709,-5.68282 -15.08598,-13.12537 -20.04199,-16.53899 -4.956,-3.41363 -9.01092,-7.03741 -9.01092,-8.05285 0,-1.01545 3.51426,-3.95944 7.80947,-6.54222 4.2952,-2.5828 12.96898,-9.28986 19.27505,-14.90461 6.30608,-5.61474 16.09739,-16.31376 21.75846,-23.77561 5.66107,-7.46185 14.38512,-22.21749 19.38676,-32.79033 5.00168,-10.57282 10.19501,-21.53275 11.5408,-24.3554 1.34578,-2.82265 9.35171,-11.97555 17.79094,-20.33978 l 15.34407,-15.2077 11.36221,10.72813 c 6.24923,5.90048 20.68772,19.701 32.08554,30.66782 11.39781,10.96686 23.18522,21.6641 26.19425,23.7717 3.35096,2.34712 10.44801,3.83198 18.31522,3.83198 10.11286,0 14.57714,-1.32165 20.99254,-6.21492 4.48149,-3.4182 9.9223,-9.95365 12.0907,-14.52317 2.16839,-4.56955 3.94254,-11.94632 3.94254,-16.39281 0,-4.4465 -1.8923,-11.5109 -4.20511,-15.69868 -2.3128,-4.18777 -19.07313,-22.89816 -37.24518,-41.57861 -18.17204,-18.68048 -33.04007,-34.31331 -33.04007,-34.73963 0,-0.42631 2.9064,-1.50458 6.45865,-2.39615 3.55225,-0.89155 17.33897,-6.82616 30.63716,-13.188 14.88388,-7.12047 30.36876,-16.85654 40.28144,-25.3269 8.8566,-7.56795 20.11979,-19.59218 25.02928,-26.72057 4.90948,-7.12837 9.22947,-12.96068 9.59996,-12.96068 0.37047,0 4.55695,5.85053 9.30329,13.00117 4.74633,7.15063 13.53879,17.02381 19.53879,21.94036 6.00001,4.91656 15.96118,12.40635 22.13592,16.64398 6.17476,4.23764 19.87731,11.58966 30.45015,16.33785 10.57282,4.74818 22.19691,9.36675 25.83132,10.26345 3.63441,0.8967 6.60801,1.92147 6.60801,2.27724 0,0.35578 -16.0305,16.72857 -35.62337,36.38395 -27.45961,27.54727 -35.99503,37.59559 -37.24518,43.84692 -0.89199,4.46042 -1.62179,11.59935 -1.62179,15.86433 0,4.26496 2.44166,11.42864 5.42594,15.91931 2.98428,4.49064 10.28314,10.64498 16.21967,13.67629 7.96653,4.06786 12.97489,5.11535 19.12089,3.99909 4.57995,-0.83179 11.06782,-2.94332 14.41748,-4.69228 3.34969,-1.74894 19.60674,-16.7625 36.12677,-33.36346 16.52004,-16.60098 31.26409,-30.2157 32.76456,-30.25491 1.50048,-0.0392 9.15062,6.79433 17.00031,15.18567 10.17421,10.87624 17.74762,22.43289 26.37624,40.24883 6.65723,13.74551 17.26852,31.82691 23.58064,40.18091 6.31213,8.354 18.51691,20.51875 27.12174,27.03278 8.60485,6.51405 16.56526,11.84371 17.68973,11.84371 1.12446,0 2.04455,1.00846 2.04455,2.24098 0,1.23256 -2.33129,2.98092 -5.18056,3.88525 -2.8493,0.90434 -14.65146,10.77422 -26.227,21.93306 -18.87367,18.19427 -22.58584,23.31231 -35.95777,49.57595 -8.20124,16.10794 -17.21433,32.02232 -20.02911,35.36531 -2.81475,3.34301 -9.76327,10.2738 -15.44115,15.4018 l -10.32342,9.32361 -32.9648,-32.66392 c -18.13064,-17.96517 -35.99273,-33.81513 -39.69351,-35.22219 -3.70077,-1.40702 -10.56597,-2.55824 -15.25603,-2.55824 -4.69003,0 -12.84108,2.42447 -18.11343,5.3877 -5.62559,3.16175 -11.46919,9.07881 -14.14392,14.32175 -2.50681,4.91375 -4.55782,13.3561 -4.55782,18.76078 0,5.40472 1.56722,12.85742 3.48273,16.56162 1.91553,3.70418 18.67587,21.29669 37.24518,39.09442 18.56934,17.79775 33.76243,33.48941 33.76243,34.87033 0,1.38094 -5.13623,4.33533 -11.41384,6.56532 -6.27761,2.22998 -17.36106,6.81265 -24.62988,10.18372 -7.26881,3.37108 -19.80582,10.81905 -27.86006,16.55111 -8.0542,5.73203 -20.34242,16.65686 -27.30715,24.2774 -6.96473,7.62052 -14.36193,17.41786 -16.4382,21.77184 -2.07626,4.35399 -4.6283,7.91633 -5.67118,7.91633 -1.04289,0 -3.44012,-2.9736 -5.32718,-6.60801 z m -229.48707,7.20874 c 13.9902,-14.20724 27.75848,-29.2422 30.5962,-33.41101 2.83769,-4.16882 5.15947,-10.96176 5.15947,-15.0954 0,-4.13364 -1.67359,-11.52113 -3.71907,-16.41667 -2.04548,-4.89553 -6.10039,-11.45141 -9.01093,-14.56864 -2.91053,-3.1172 -8.21177,-7.18686 -11.78055,-9.0437 -3.56879,-1.85684 -9.2804,-3.37606 -12.69249,-3.37606 -3.41208,0 -9.68331,1.52763 -13.93609,3.39474 -4.25274,1.86711 -18.81573,14.27204 -32.36217,27.56652 -17.21853,16.89829 -24.60426,25.81882 -24.54471,29.64533 0.0469,3.01045 1.39846,7.80702 3.00364,10.65908 1.60518,2.85201 11.43387,14.47611 21.84155,25.83132 10.40771,11.35519 19.61731,20.64582 20.46577,20.64582 0.84848,0 12.98921,-11.62409 26.97938,-25.83133 z m 542.7807,-29.66591 c 0.0134,-4.21846 -7.49732,-13.0704 -27.81604,-32.80988 l -27.82616,-27.03278 h -11.95135 c -6.57323,0 -15.05633,1.60565 -18.8513,3.56811 -3.79501,1.96246 -9.10595,6.66612 -11.80214,10.45255 -2.69619,3.78645 -5.95569,11.57343 -7.24337,17.3044 -1.78772,7.95661 -1.51278,12.40265 1.16309,18.80685 1.92735,4.61281 15.63286,20.67992 30.45667,35.70472 l 26.95239,27.3178 23.45405,-23.76735 c 16.54729,-16.76822 23.45707,-25.46861 23.46416,-29.54442 z M 128.96255,682.55663 c 7.49248,-3.08171 19.0152,-9.5616 25.60606,-14.39973 6.59086,-4.83814 15.20306,-13.91516 19.13819,-20.17116 3.93516,-6.25603 9.0314,-17.17808 11.32498,-24.27125 3.05091,-9.43526 3.8947,-18.14176 3.14391,-32.43935 -0.8622,-16.41842 -2.31685,-21.96384 -9.09898,-34.68737 -4.52339,-8.48608 -13.63928,-20.23223 -20.7336,-26.71603 -7.68322,-7.02204 -19.09788,-14.21385 -29.03352,-18.29258 -12.67956,-5.20516 -20.43766,-6.75969 -34.394456,-6.89173 -12.842739,-0.1216 -22.595356,1.40083 -33.936299,5.29732 -11.511354,3.95509 -19.866265,9.0441 -30.198002,18.39379 -8.57,7.75538 -17.583157,19.01169 -22.5322216,28.13991 C 0.274393,571.22638 0,572.61169 0,598.16452 c 0,25.99973 0.14417418,26.68751 8.8159599,42.051 4.8487661,8.59042 11.8772871,18.41859 15.6189451,21.84038 3.741645,3.42177 10.564961,8.80804 15.162946,11.96945 4.597971,3.16142 13.789119,7.62532 20.424774,9.91981 7.947446,2.74807 19.445193,4.17907 33.691048,4.19319 17.189457,0.0169 24.421017,-1.12813 35.248877,-5.58172 z m 1017.22765,-2.23054 c 7.9297,-3.69252 19.125,-11.25435 24.8786,-16.8041 5.7536,-5.54974 12.9849,-14.01682 16.0696,-18.81575 3.0846,-4.79893 7.41,-14.92256 9.6119,-22.49699 2.6601,-9.15009 3.6927,-19.5273 3.0771,-30.92277 -0.6475,-11.98693 -2.8425,-21.28821 -7.2897,-30.89115 -3.4997,-7.55699 -11.4615,-19.19054 -17.6928,-25.85228 -6.5649,-7.01841 -17.4989,-15.13485 -25.9994,-19.29947 -8.0684,-3.95295 -20.7971,-8.30692 -28.2861,-9.67546 -9.1622,-1.67424 -18.4453,-1.71055 -28.3779,-0.11102 -8.1189,1.3075 -20.5035,5.00605 -27.5215,8.21901 -7.0182,3.21293 -17.2218,9.87259 -22.675,14.79921 -5.4531,4.92662 -13.5827,15.05291 -18.0656,22.50289 -4.4828,7.44999 -9.3529,19.27553 -10.8222,26.27899 -1.4694,7.00347 -2.6588,17.27593 -2.6431,22.82769 0.017,5.55177 1.5848,15.94147 3.4868,23.08824 1.9021,7.14678 7.0151,18.20619 11.3621,24.57645 4.347,6.3703 12.78,15.25798 18.7401,19.75043 5.9601,4.49246 14.621,10.10394 19.2466,12.46999 4.6257,2.36604 11.6541,5.13892 15.6189,6.16199 3.9649,1.02304 17.4813,1.64581 30.0365,1.38388 19.337,-0.40339 25.0323,-1.50282 37.2451,-7.18988 z M 377.57835,391.20062 c 4.54066,-2.1547 9.86714,-6.20962 11.83656,-9.01094 1.96943,-2.80131 4.70976,-9.27001 6.08961,-14.37485 1.37987,-5.10488 1.78688,-13.55476 0.9045,-18.77756 -1.31487,-7.78267 -4.89012,-12.61124 -19.81565,-26.76217 -10.01624,-9.4964 -22.38628,-21.32109 -27.48899,-26.27711 -5.10271,-4.956 -10.71416,-9.01092 -12.46988,-9.01092 -1.75571,0 -5.91749,4.11821 -9.24843,9.1516 -3.33093,5.03336 -11.21909,14.31444 -17.52926,20.62462 -6.31017,6.31017 -14.00102,13.12943 -17.09078,15.15391 -3.08974,2.02448 -5.61772,4.66374 -5.61772,5.86505 0,1.20129 9.46147,11.46564 21.0255,22.80965 11.56402,11.34402 25.24267,23.75318 30.39696,27.5759 7.03748,5.21942 12.03385,6.95043 20.06163,6.95043 5.87959,0 14.40526,-1.76293 18.94595,-3.91761 z m 486.79,-7.20688 c 6.9825,-6.11845 20.53501,-18.67929 30.11667,-27.91298 9.58165,-9.23368 17.39558,-17.47372 17.36425,-18.31122 -0.0308,-0.8375 -4.41644,-4.74882 -9.74479,-8.69187 -5.32848,-3.94301 -14.3005,-12.05284 -19.93809,-18.02185 -5.63746,-5.96899 -12.18979,-13.82633 -14.56065,-17.46074 -2.37083,-3.6344 -5.18561,-6.60801 -6.25503,-6.60801 -1.06941,0 -14.38435,12.16475 -29.5887,27.03279 -22.73018,22.22737 -27.93588,28.6346 -29.28455,36.04372 -0.90216,4.95601 -0.93626,12.76368 -0.0757,17.35039 0.86046,4.5867 4.40687,11.71745 7.88091,15.84611 3.47404,4.12865 8.56723,8.41718 11.31823,9.53008 2.751,1.1129 10.64261,2.09198 17.53691,2.17575 11.5715,0.14056 13.51102,-0.70283 25.2306,-10.97217 z M 262.01357,336.12187 c 7.87691,-2.05113 18.93087,-6.42999 24.5644,-9.73077 5.63351,-3.30079 15.18399,-11.08407 21.22326,-17.29619 6.0393,-6.21208 13.81415,-17.24194 17.27749,-24.51076 5.38851,-11.30939 6.31329,-16.5166 6.41023,-36.09425 0.10433,-21.05187 -0.50726,-24.13867 -7.65992,-38.6678 -4.29897,-8.73248 -13.30243,-21.31882 -20.14432,-28.16074 -6.80414,-6.80414 -18.44459,-15.29573 -25.86762,-18.87023 -11.23627,-5.4107 -17.58725,-6.66615 -37.92388,-7.49676 -24.06067,-0.98271 -24.69995,-0.86661 -42.57797,7.73236 -12.62253,6.07121 -20.91741,12.03349 -27.23525,19.57643 -4.99657,5.9655 -11.34684,14.86167 -14.11168,19.76923 -2.76482,4.90757 -6.25815,12.70746 -7.76293,17.33307 -1.50477,4.6256 -2.87849,18.22227 -3.0527,30.21477 -0.2797,19.25372 0.46914,23.47038 6.40109,36.04372 3.99572,8.46925 11.96474,19.29268 19.66618,26.71035 9.21063,8.87125 17.58047,14.20663 28.99535,18.48319 8.82585,3.30659 18.7503,6.46812 22.05431,7.0256 3.304,0.5575 10.37569,1.16089 15.71482,1.34087 5.33916,0.17998 16.15228,-1.35097 24.02914,-3.40209 z m 729.19163,-1.16914 c 4.62723,-1.19547 14.1327,-5.77982 21.1232,-10.18744 6.9904,-4.40765 17.3198,-13.63356 22.9539,-20.50208 5.6343,-6.86849 12.3251,-18.16104 14.8685,-25.09456 3.1876,-8.68976 4.6406,-18.95205 4.6765,-33.03113 0.048,-19.00872 -0.5986,-21.72017 -9.3363,-39.10886 -5.8267,-11.59586 -13.1195,-21.8971 -19.2233,-27.15342 -5.4091,-4.65811 -10.9161,-9.2625 -12.2377,-10.23198 -1.3216,-0.96949 -7.2689,-4.42308 -13.2161,-7.67462 -9.62745,-5.26373 -13.71107,-5.91341 -37.24514,-5.92541 -22.91801,-0.012 -28.18904,0.77273 -39.6481,5.90005 -7.26885,3.25245 -14.62099,7.28314 -16.33823,8.95713 -1.71723,1.674 -4.45888,3.87847 -6.09241,4.89885 -1.63353,1.02035 -6.85634,6.72109 -11.60626,12.66831 -4.74978,5.94721 -10.77563,15.13836 -13.39058,20.42477 -2.6151,5.28641 -5.5147,12.76596 -6.44367,16.62125 -0.92895,3.85529 -1.67036,15.48677 -1.64761,25.84777 0.0296,13.48013 1.39475,21.89764 4.79958,29.59483 2.61696,5.91615 7.75955,14.82957 11.42799,19.8076 3.66831,4.97803 8.33278,10.70232 10.36514,12.72065 2.0325,2.01833 7.47336,6.34358 12.09081,9.61166 4.61746,3.26808 12.18657,7.35637 16.82037,9.08511 4.6338,1.7287 13.83161,4.07111 20.43965,5.20531 6.60804,1.1342 17.96184,1.53965 25.23069,0.90098 7.2687,-0.63865 17.00183,-2.13932 21.62907,-3.33477 z M 638.40543,170.02659 c 8.82777,-4.16915 20.79566,-11.95419 26.59527,-17.30007 5.79958,-5.34589 13.43922,-15.63115 16.97696,-22.85612 3.53771,-7.22498 7.6395,-18.76573 9.11508,-25.64609 1.47556,-6.880368 1.96481,-17.922758 1.08716,-24.538712 -0.87764,-6.615914 -4.59434,-18.637483 -8.25937,-26.714572 C 679.93799,44.194173 672.49626,33.665842 665.42484,26.804008 658.91722,20.489219 646.56426,11.857933 637.97385,7.6233639 623.65949,0.56721297 620.44819,-0.06910878 599.52721,0.00519483 580.05144,0.07443593 574.67545,1.016865 562.91487,6.4240999 555.33329,9.9099142 544.19325,16.882762 538.1592,21.919296 c -6.03406,5.036547 -14.24583,14.254306 -18.2484,20.483876 -4.0026,6.229584 -8.79905,17.042701 -10.65884,24.029156 -1.85976,6.986441 -3.38137,17.027861 -3.38137,22.314279 0,5.286418 1.46843,15.126273 3.26322,21.866353 1.79479,6.74008 6.18362,17.23796 9.75298,23.32863 3.56936,6.09065 10.2343,14.36167 14.81098,18.38006 4.57669,4.01837 11.02826,9.07985 14.33685,11.2477 3.30857,2.16786 12.73365,6.49076 20.94463,9.60645 11.96771,4.54117 18.74212,5.54249 34.15232,5.04794 15.77459,-0.50621 22.10284,-1.9768 35.27386,-8.19715 z"/>
</svg>
